<mxfile host="app.diagrams.net" agent="Mozilla/5.0 (Windows NT 10.0; Win64; x64) AppleWebKit/537.36 (KHTML, like Gecko) Chrome/134.0.0.0 Safari/537.36 Edg/134.0.0.0" version="26.1.1">
  <diagram name="Page-1" id="9jq42fdDEACJ9n65cMFp">
    <mxGraphModel dx="946" dy="571" grid="1" gridSize="10" guides="1" tooltips="1" connect="1" arrows="1" fold="1" page="1" pageScale="1" pageWidth="850" pageHeight="1100" math="0" shadow="0">
      <root>
        <mxCell id="0" />
        <mxCell id="1" parent="0" />
        <mxCell id="CmtSUUQ3qmLQpckclxJ5-1" value="" style="verticalLabelPosition=bottom;verticalAlign=top;html=1;shadow=0;dashed=0;strokeWidth=1;shape=mxgraph.android.phone2;strokeColor=#c0c0c0;" vertex="1" parent="1">
          <mxGeometry x="40" y="160.23" width="70" height="100" as="geometry" />
        </mxCell>
        <mxCell id="CmtSUUQ3qmLQpckclxJ5-2" value="" style="dashed=0;outlineConnect=0;html=1;align=center;labelPosition=center;verticalLabelPosition=bottom;verticalAlign=top;shape=mxgraph.webicons.whatsapp;fillColor=#4FE238;gradientColor=#138709" vertex="1" parent="1">
          <mxGeometry x="190" y="193.8" width="52.4" height="52.4" as="geometry" />
        </mxCell>
        <mxCell id="CmtSUUQ3qmLQpckclxJ5-3" value="Whatsapp Bussines" style="text;html=1;align=center;verticalAlign=middle;whiteSpace=wrap;rounded=0;" vertex="1" parent="1">
          <mxGeometry x="186.2" y="250" width="60" height="30" as="geometry" />
        </mxCell>
        <mxCell id="CmtSUUQ3qmLQpckclxJ5-4" value="" style="shape=image;verticalLabelPosition=bottom;labelBackgroundColor=default;verticalAlign=top;aspect=fixed;imageAspect=0;image=data:image/jpeg,/9j/4AAQSkZJRgABAQAAAQABAAD/2wBDAAsJCQcJCQcJCQkJCwkJCQkJCQsJCwsMCwsLDA0QDBEODQ4MEhkSJRodJR0ZHxwpKRYlNzU2GioyPi0pMBk7IRP/2wBDAQcICAsJCxULCxUsHRkdLCwsLCwsLCwsLCwsLCwsLCwsLCwsLCwsLCwsLCwsLCwsLCwsLCwsLCwsLCwsLCwsLCz/wAARCAFoAWADASIAAhEBAxEB/8QAHAABAAIDAQEBAAAAAAAAAAAAAAYHBAUIAQMC/8QAUBAAAQMDAgMEBQYHDQUJAAAAAAECAwQFEQYhEjFBE1FhcQcUIjKBNkJykaGxFSR1grO0wRcjMzVDRVJTYnN0lNFVk6Kj0xZUY4Oy0uHw8f/EABsBAQADAQEBAQAAAAAAAAAAAAAEBQYCAQMH/8QALxEBAAEDAQQIBgMBAAAAAAAAAAECAwQFESExQRITFDJRYcHRBiJxkaGxFYHwQv/aAAwDAQACEQMRAD8AtsDYbAANhsAA2GwADYbAANhsAA2GwADYbAANhsAA2GwADYbAANhsAA2GwADYbAANhsAA2GwADYbAANhsAA2GwADYbAANhsAA2GwADYbAAAAAAAAAAAAAAAAAAAAAAAAAAAAAAAAAAAAAAAAAAAAAAAAAAAAAAAAAAAAAAAAAAAAAAAAAAAAAAAAAAAAAAAAAAAAAAAAAAAAAAAAAAAAAAAAAAAAAAAAAAAAAAAAAAAAAAAAAAAAAAAAAAAAAAAAAAAAAAAAAAAAAAAAAAAAAAAAAAAAAAAAAAAAAAAAAAAAAAAAAAAAAAAAAAAAAAAAAAAAAAAAAAAAAAAAAAAAAAAAAAAAAAAAAAAAAAAAAAAAAAAAAAAAAAAAAAAAAAAAAAAAAAAAAAAAAAAAAAAAAAAAAAAAAAAAAAAAAAAAAAAAAAAAAAAAAAAAAAAAAAAAAAAAAAAAAAAAAAAAAAAAAAAAAAAAAAAAAAAAAAAAAAAAAAAAAAAAAAAAAAAAAAAAAAAAAAAAAAAAAAAHgUD0BAAAAAHmQB6AAAAAAAAAAAAAAAAAAAAAAAAAAAAAAAAAAAAAAAAAAAB4oDKkTvGsIKV76a2tZUTtVWyTvz6uxU6M4d3L8UTxXp8NXX18XFaaSThe5qevSN95GuTKQtVO9N3eG3UgyqiJnOERDVaTo9N2mL+RG6eEess1qerVW6ps2J3859IbOov8AqGpcrpLhUN/swO7FifmxYFPfr/TKjo7jUrj5sz+2Yvm2TKGZb9J3uvjZO9IqWJ6cTFqeJZXJ39m3dPiqH6rtJXuijfMxIquJqcT/AFfiSVETr2b91+CqXXXadFXU/L9Nke2xT9VnzT1vzflvbPrGGodHT3NrIJHYayojz2Dl7pEXPD55VPIlyLnC7YXkUn+3KY/YS/S+oXU747bXyfi71RlLNIq/vK9I3uX5q9O7y5U+p6LFNM3sb+49lrp2rzVMWsj7+6dySRxMfLK9rIo2q6R71RrWtTmqqpB7trOdznw2lqMjRVT1qVqOe/xjjcmETzz5IYOpb865TOo6VypQQvxlNvWZGrjjX+ynzU+Plg2ew3C8uc6LENIx3DJUyNyiuTm2JvVe/oMHTLNi12nN+08vefIzNRu37nZ8T7xz9vqx33m+yPV7rlW8Wc7TyNRPJrVRPsM+i1Xf6RzeOf1qJMZjqsKqp4SInHn6ySs0PZkZh9RXPkVMK9JI2796NRmPvNFd9JV1vjfUUkjqqmYiukThRJ4mp87hbsqeX1E6jL0zJnqppiNvjGz7TyQ6sXUMeOt2z99qZ2i90N4jc6BysmjRO2gkVO0jz1TvTuVPsNqUxS1VTRzw1VK9WTRKjmOTdFTq1ydUXqha1ouUN2ooquNOFy5ZNHzWKVuOJq/engpQ6rpc4c9O3von8eS60zUu1R0K+9H5bEAwrpXx2u3XG5SxvkjoaaWqeyPhR72xt4la3i2KNdM0FY/uw2Nf5ouP+8p/9SxqGrprhSUldSvR9PVQxzwuTG7HpxJnxTkoGQAAANVf73QaftlRdKzidHCrGRxR4SSaV68LY2cW2ear4IvcQdnpesj3xsS03HLnNamZKf5yonRQLNAAAAAAB8QAI3FrnRE88FNDeYXzzzRwRMSGpy6SRyMa3Kx43UkgAAAAAAAAAAAAAA2Gw3G4DYbDcbgNjDuVbHbqGsrHoi9hGrmNX58i+yxvxXBmLkheua1WxW6ga7eVz6qVP7LPYYi/FVX4EzBx+05FNrlM/hEzL/Z7FVzwQmWWWaSWaVyvlle6SVy83PevEqko0hZGVcrrpVMR0FPJwUjHJlskzfekVO5vJPHPcRZjJJXxxRpmWZ7IY073yORrULioaOGgo6SjiTDKeFkSeKtTdy+KrlV8zX65lzjWIs2901fiGV0fF7Rem7XviP2yEREComx6DCNqheqtPNc2W6UMaJI1OKtiYnvtTnK1E6p87v59N4N9W/1KW9dbjBa6Koq5UzwpwRRr/Kyu2az/AF8EUqNzle571RqK5znKjERGorlzhqdE7jdaBkXrtmaLnCOE+jFa3YtWrsVUcZ4x6s60Wx92r6eja7gjVFlqH5RHMhZjiRn9peSeeeha8FPT00MNPBG2OGFjY42MTCNa1MIhT9LU1FFU09XTu4ZoHo9meS9Fa7wVMovmW1b66C40lPWQKvBM3KtX3mPTZzHeKLsQPiOi7NVFU9z1TtBqt9GqmO/6MsKiLg9QGUaZWWqbSy213awN4aSt4pI2pyjlT3408OSp5+B+tI3JaO5JTPd+8V6JEqKuyTt3jd8d2/FO4l+qKJKyz1ns5kpUSri23RY/eT4pkq9r5I3MljVUkie2WNU6PYqORTd6fX/I4FVm5xjd7SxmbR2HNi7Rwnf7wuvY0er/AJL6o/JNb+jU2lFUtq6Ojqme7UQRTJ4cbUdg1ervktqj8k1v6NTCzTNMzE8mypqiqIqjm5kRFzsW76J9R7VGm6p/LtKu18S/nTQN/wDWn5xB9DU9PV6pstLUxtlp6n12CaN6Za+OSjmY5Pt2PjdKG6aO1G+KORzai3VLKmhn6TQ5443rjbCps5M96dDx06Z2BrbJd6W+Wu33Sl2jqokc5mUVYpW+zJG7xauU/wD01WttRJp2xVVRG9Er6ripLc3bPbPRcy47mJleXPCfOAq70nakS63dLVTPzQ2hz43K1ctlrV2lf5N9xPJ39IgkG1RTp/40fP6SEw9Hmn3X6/xVFQ1X0NrfHW1avTiSWXiVYoncXPiVFV23Jq95FpVzc5V6rXvX/nKB1ZsNhuVLrz0h1dPU1FksMyxPgc6G4VzMdokqbOhp16cPJzuedkxw5cFqzVFLToizzQxIvJZpGMz5cSofqOWGVvHE+ORi8nRuRzfrbsc20Gldbaka6vp6GqqWSKqrV1kzI0lXqrZKp6K74ZPxPRa00dVQyyMrrZO5cxSxSIsUuObeOJzoneKKq+QHTB4ucLt0X7iH6F1g3U9HLFVNZHdqJGetNZsyeJy4bPG3p3OTov0sJW+odO6/qb9qCekt92dSzXKtkp3RyORjonSOVqt9vGFTkBFbGirqGwJ1W9W9MePrTDqM5MhiqZaiCGna91RJNHFC1meN0rnI1qN8c4wSb/sv6Ss/xbef94//AN4HRo+BH9JxVdBpiyxXJH089NSyLVetOw6LEj3qsjnLsiJvzKk1f6QrteaiopLVUTUdoY50bOxV0c9W1Nu0memHI1ejdtl3yvIL0fWUMT0jkqaZknLgfNG12foquT7Z5eJzRQ6O1ndIW1VHZ6uSGVONksqxwtkRd+Ji1Dm5Re9DZ2y9a00LWxwV0FaykfxNloKxXpBLHjDnU71y1HJnOWr3ZymwHQvwGxzNpysrpNSaaa6qqVY69W1Fa6aRUVq1LNlTJ0yA2Gw3G4DYbDcbgAAAAAHhWWrZ1mvlU3OW08VPA3wwztF+1xZpUl8crrzeVX/vszfg1eFPuNH8O0ROTVVPKPWFBr1UxjxHjPpLI0xTpU322o5MtgWWqX/ymLw/aqFqFdaIai3aqdj3KB6J+dKz/QsU+ev1zVl7PCId6HRFONt8ZkPNj0i2rbz6nS/g+nf+NVjFSVWr7UVOuyrt1dyT49xUY2PXk3YtUcZWuRfpx7c3K+EIxqa8LdK5zIXZoqTijp8KuJHcnS/HkngnifnT9ideX1rnudHT08LmNkTbNU9MsTybzd8ENPHFLNLDBC3jmmeyKFqfOe5cInl3lt2q3Q2ugpqONUVY25lfjeWV273r5qbLUcinTcWmxY3VT/plksCxOoZFV69w/wBshUs0M1NNNTzN4JoXujkb3OauFx4dxItI3ZaKsWhmfilrXpwK5do6nGEXydy88Gy1naMtZdoG7sRsVaiJzbyZL8OS/DuIP3bqmMclVFRU6opMt129Uw/m58fKUS5Rc03K3cvzC7EPTRaau/4VoWpK5PW6bhiqU5K7b2ZU+l18UU3p+fXrNdi5NqvjDdWbtN6iLlHCX4kY2Rr43plsjXMcne1yYUpiRixSSRLzikkjd5scrV+4urqhT91ajLpd29ErqpP+Yqmm+G656y5R5QzvxBT8lFXnKf6Pm7ax07FXK08tRT+SNerm/YqH01f8l9Ufkmt/Rqa/QzlW3XFqr7teuPjDGpsNX/JfVH5Jrf0alHqVMU5dyI8ZXOn19PGomfBR3o9+WOnP76p/VZSzfSfpz8K2lt2pmcVbaGPfIjUy6WiXeRPzPfTw4u8rL0e/LHTn99U/qsp0Y5rXNc1yI5rkVrmuRFaqKmFRUUgJyk/RXqNaG4y2GokxS3NyyUiuX2Y61rfdT6aJjzaneaTXWoH6kv8AI2lV0lFRu9RtrI0Ve1Xiw+VrU3y93LbkjT4ay07Pp2+1VPTxyepzr65b3tRy4heq+xlOrFy3n0RepIPRfpp1fc33qriX1S1uRKZJGqjZa5Uy1Uz/AFae15q3uAs7R2n2acslJQua31yT8ZuD24XiqZETLUVOjUw1PLPU51k/jOX/ABzv0x1YnM5Tk/jOX/HO/TAdM3+vda7Le7gz+EpKGplh5fwqMVGc/FUOctPU1tr73bYrtVRQUD51lrpqiVI2ujjRZHMV6rzfjh59ToHWcElRpXU0UaKrvwfNLhN1VIcSr9iKc82K1tvV2oLWtWylWtkdEyaRiva1/ArmtVqOT3lRETfqB0PHqrRMTI4477ZWRxsbHGyOqgaxjGphGtRFxhOSGs1Dd9C3yz3O3TX2zOWeCRYFWrhVY6hjVdHI3fOUXH3dSHfuOVv+3qf/ACUn/VH7jdb/ALep/wDJyf8AVAiWgK+S36rsb0cqMqploJk6PZUpwIi+TuFfgdHLyXyX7iqbX6KKy33K1163uCRKKtpatWJSSNV6QyNkVqKsnXGC1l5O8l+4Dlyx/KCw/li3/rLDqT6jluybagsO/wDPFv8A1lh1IBDfSVcJLfpSuSNytfcJoLdxJlFRkuZJE+LWuT4lX+jexUt61Aj6yNJKS2wLWvicmWSS8aMiY9F6ZXiX6OOSlh+lmF8ul4XtRVSnutJLJ4NdHNDlfi5CJeiCqhjvF4pXKiSVVAySLO3F2EqK5qeOHZ+AF2YNTqG0UF7tNdQVkaOY6KSSKThRXwTMaqsljVeSp9qKqclNsfGqc1tNVOVURrYJnOc5URrURirlVUDmXTHyl0v+WrX+sxnUBy/pj5SaX/LVr/WYzqAAAAAAAAAAAAPCqNRROivd3aqe9ULKnikrWv8A2lrkE1vb3smpbmxv73KxKaoVOkjVVWKvmmU+Cd5faBfi3ldGr/qNnqpNaszcxtscp2+jB0dUMgvPZvVESqpZYWLn+Ua5siJ9SKWSUrHJJE+OSJ7mSRvbJG9i4cxzVyiopKotcXJsSNmo6aWVqY7VHvjRy97mIi/HdC01jSr+Rei9ZjbtjerdK1K1YtdVenZs4Jlc7lS2uklq6hdm+zFGi+1LKqbMb+0qmrqqmuqZ6uodxSzvV71TOE6I1vgibIfa43Svus/b1cqKrcpFGxOGKJq80Y371zn6j62a0T3msbA3ibTRK19ZKie5H/QavLidyTu59CZgYVGmWar16d/OfCPBFzcyrULtNq1G79+aQaLtKue+7zs9lEfDQI5PzZJk+1rfj3k5PxDDFBFDDCxGRRMbHGxqYRrWphERD6GMzcqrLvVXav6+jWYmNTjWotx/pfOWOKaOWKRqOjkY6ORruTmuTCopU13tstqrpqV+Vj9+mf8A1kLlXhXzTkpbpptQWdl3o1axESrgzJSvXZOLG8bl7nf/AD0Juk5/Y72yruzx90TVMLtVrbT3o4eyurTcp7TXQ1cSK5qfvc8aL/CQuX2m+fVPFC16apgq4IKmB6PhmY2SNyclRU6/tKbkjkjfJFIxzJYnKyRj9nMci7tVDa2i/wBxs/GyFGS0z14nQTKvCjl5ujcm6KvXp4Gl1bTO2RF2z3v3DPaZqPZKptXu7+lqK5GornKiNaiucq7IiJuqqpTlZMlTWV1Snu1FTPM36L3q5DdXPVdzuFO+lZFHSwypwy9k5z5HtXm1XuxhF67Eew5ytaxque9zWRtTm57lRrWoniuDjRdOuYcVXL+6Z/TvVc+jLmm3a3xH7WHomNWWqokxtPXTOTxRjWR5+xTM1f8AJfVH5Jrf0amdaKFLdbaGj2V0MLUlVOsrvaev1qp9LjQwXOhrrfULIkFZBJTzLC5GvRj0wvCqoqZ+Bj829F7IruRwmZarDtTZsUW55Q589Hvyx05/fVP6rKdHENtPo60vZbjRXSjkuK1NI574kmnidGqvjdGvE1sSLyVepMiKlPMIvNEPURE5IAA7jlOT+M5f8c79MdWdxAl9Fej1mWdZbtxrKsq/jMWOJXcf9Vn7QJ3IyORkkcjUcyRjmPa7k5rkVFRTm/VWnLhpS8OaztEpXTLU2qrblMsa7ianGn8ozZF8s8lOkjFr7fbrpSy0dwpYqmmkwr4pmoqZTk5vVFToqKigVnZPS5RerxQ36jqEqY2NatTQtY9kyomOJ8TnNVqr1wqp5cjKuPpesccT0tdvramoVuGLVpHBA1y8ldwOc9cd2E805p9Kz0Raamkc+jrbhSNcueyVYp42eDVeiP8ArcopPRFpqGRr6uuuNU1qovZosUDHb8nKxqv+pyAY3o+1tfrzdK+3XSOWpbULJVw1EEWIqHCbxSY2SNcYYqrnO2/FltoZ5GHbbVabPTpS22jhpYE3VsTcK93LikcuXKviqqZoHL96oKywX24UrkdHNRVrpKd+F3Yj+1hlbnoqYVC1KL0vafdTRrX2+5R1aMTtW0rYJYXPxurHPkY7C+KfWS3UOktP6lYz8IQPbURNVkNXTOSOoY3deHiVFaqeCtX4ZIenoesnHlbtcVZn3Ujp0dj6WMf8IEud6jrTS7/YkhprxSSdmkvCskLmvVGPVGqqZRzUXmUC5l90le25R1Nc7bPxMXGWPTdOJM7Kx6Z80U6RtFspbNbaG2UrpXU9HH2UTp3NdK5Fcr1VytREzlV6IYl90zYNRxNiudKj3xoqQVEbljqIc/0JE6eCoqeAEJoPS/ZnwM/CdsroqlERH+o9jNC53e3tXscme7fzUj+pPSFdNTs/AdjoZ4IK5yQSJlJK2rRy/wAEiR+y1q/ORFXKdUTKOkD/AEPWVZMsu9wSLPuuip3Px9NERP8AhJVYNFaa07xPooJJKt7HRvrKp6SVHC5FRUYqIjG/BqZ65AoTTOU1LpdF5pe7Wi/5mM6gIPRejHSdBW0NfBLc1no6mCriSSpiViyQvSRvEiRIuMpvuTgAAAAAAAAAAAB8Kqmp6uCamqGNkhmarJGuzui9yp16ofcHsTMTth5MRVGyVbXPSN1pJHvomrWU26t4Va2didzmqqIvmn1Gldb7qi8K2+v4s4x6rP8AsbguLB79ZorPxBkW6dldMVeagvaFZrq20TMKvt2lb5XPas0S0VPlOOSoRO1x17OLnnzwWHbrfRWumjpKRnDG3KuVVy+R683yO6qv/wB5GbgFdm6lfzd1c7I8IT8PT7OJvo3z4yAArViHh6AI7ftNQXb8Ygc2GvaiN41RezmanJsuN/Jfv6Qapsd+pHObLb6hyJyfTtWaNfFFjz9qIW39Y+sucLWL+LT0O9Hn7qjL0mzk1dLhPkp+G1XqocjYbbWucq4y+F8TU83y4b9pM9P6VWhlZXXF0b6tm8EMftRwLjHErl5u7ttvtJbgHeXreRk0TbiOjE+HFxi6PZsVdOr5peYPU/1AKNdAAAAAAAAAAAAAAAAAAAAAAAAAAAAAAAAAAAAAAAAAAAAAAAAAAAAAAAAAAAAAAAAAAAAAAAAAAAAAAAAAAAAAAAAAAAAAAAAAAAAAAAAAAAAAAAAAAAAAAAAAAAAAAAAAAAAAAAAAAAAAAAAAAAAAAAAAAAAAAAAAAAAAAAAAAAAAAAAAAAAAAAAAAAAAAAAAAAAAAAAAAAAAAAAAAAAAAAAAAAAAAAAAAAAAAAAAAAAAAAAAAAAAAAAAAAAAAAAAAAAAAAAAAAAAAAAAAAAAAAAAAAAAAAAAAAAAAAAAAAAAAAAAAAAAAAAAAAAAAAAAAAAABuNxsNgG43Gw2AbjcbDYBuNxsNgG43Gw2AbjcbDYBuNxsNgG43Gw2AbjcbDYBuNxsNgG43Gw2AbjcbDYBuNxsNgG43Gw2AbjcbDYBuNxsNgG43Gw2AbjcbDYBuNxsNgG43Gw2AbjcbDYBuNxsNgAAAAAAAAAAAAAAAAAAAAAAAAAAAAAAAAAAAAAAAAAAAAAAAAAAAAAAAAAAAAAAAAAAAAAAAAAAAAAAAAAAAAAAAAAAAAAAAAAAAAAAAAAAAAAAAAAAAAAAAAAAAAAAAAAAAAAAAAAAAAAAAAAAAAAAAAAAAAAAAAAAAAAAAAAAAAAAAAP/9k=;" vertex="1" parent="1">
          <mxGeometry x="280" y="193.79999999999998" width="64.96" height="66.43" as="geometry" />
        </mxCell>
        <mxCell id="CmtSUUQ3qmLQpckclxJ5-5" value="" style="sketch=0;points=[[0,0,0],[0.25,0,0],[0.5,0,0],[0.75,0,0],[1,0,0],[0,1,0],[0.25,1,0],[0.5,1,0],[0.75,1,0],[1,1,0],[0,0.25,0],[0,0.5,0],[0,0.75,0],[1,0.25,0],[1,0.5,0],[1,0.75,0]];outlineConnect=0;fontColor=#232F3E;fillColor=#E7157B;strokeColor=#ffffff;dashed=0;verticalLabelPosition=bottom;verticalAlign=top;align=center;html=1;fontSize=12;fontStyle=0;aspect=fixed;shape=mxgraph.aws4.resourceIcon;resIcon=mxgraph.aws4.api_gateway;" vertex="1" parent="1">
          <mxGeometry x="460" y="70" width="78" height="78" as="geometry" />
        </mxCell>
        <mxCell id="CmtSUUQ3qmLQpckclxJ5-7" value="&lt;h1 style=&quot;margin-top: 0px;&quot;&gt;Meta Resource&lt;/h1&gt;&lt;p&gt;Cloud API&lt;/p&gt;&lt;p&gt;Whats App&lt;/p&gt;" style="text;html=1;whiteSpace=wrap;overflow=hidden;rounded=0;" vertex="1" parent="1">
          <mxGeometry x="170" y="80" width="210" height="250" as="geometry" />
        </mxCell>
        <mxCell id="CmtSUUQ3qmLQpckclxJ5-8" style="edgeStyle=orthogonalEdgeStyle;rounded=0;orthogonalLoop=1;jettySize=auto;html=1;entryX=0;entryY=0.5;entryDx=0;entryDy=0;entryPerimeter=0;" edge="1" parent="1" source="CmtSUUQ3qmLQpckclxJ5-7" target="CmtSUUQ3qmLQpckclxJ5-5">
          <mxGeometry relative="1" as="geometry" />
        </mxCell>
        <mxCell id="CmtSUUQ3qmLQpckclxJ5-9" style="edgeStyle=orthogonalEdgeStyle;rounded=0;orthogonalLoop=1;jettySize=auto;html=1;entryX=-0.033;entryY=0.518;entryDx=0;entryDy=0;entryPerimeter=0;" edge="1" parent="1" source="CmtSUUQ3qmLQpckclxJ5-1" target="CmtSUUQ3qmLQpckclxJ5-7">
          <mxGeometry relative="1" as="geometry" />
        </mxCell>
        <mxCell id="CmtSUUQ3qmLQpckclxJ5-18" style="edgeStyle=orthogonalEdgeStyle;rounded=0;orthogonalLoop=1;jettySize=auto;html=1;" edge="1" parent="1" source="CmtSUUQ3qmLQpckclxJ5-10" target="CmtSUUQ3qmLQpckclxJ5-15">
          <mxGeometry relative="1" as="geometry" />
        </mxCell>
        <mxCell id="CmtSUUQ3qmLQpckclxJ5-10" value="" style="sketch=0;points=[[0,0,0],[0.25,0,0],[0.5,0,0],[0.75,0,0],[1,0,0],[0,1,0],[0.25,1,0],[0.5,1,0],[0.75,1,0],[1,1,0],[0,0.25,0],[0,0.5,0],[0,0.75,0],[1,0.25,0],[1,0.5,0],[1,0.75,0]];outlineConnect=0;fontColor=#232F3E;fillColor=#ED7100;strokeColor=#ffffff;dashed=0;verticalLabelPosition=bottom;verticalAlign=top;align=center;html=1;fontSize=12;fontStyle=0;aspect=fixed;shape=mxgraph.aws4.resourceIcon;resIcon=mxgraph.aws4.lambda;" vertex="1" parent="1">
          <mxGeometry x="630" y="70" width="78" height="78" as="geometry" />
        </mxCell>
        <mxCell id="CmtSUUQ3qmLQpckclxJ5-11" value="API Gateway" style="text;html=1;align=center;verticalAlign=middle;whiteSpace=wrap;rounded=0;" vertex="1" parent="1">
          <mxGeometry x="469" y="163.8" width="60" height="30" as="geometry" />
        </mxCell>
        <mxCell id="CmtSUUQ3qmLQpckclxJ5-12" value="DynamoDB Message" style="text;html=1;align=center;verticalAlign=middle;whiteSpace=wrap;rounded=0;" vertex="1" parent="1">
          <mxGeometry x="796" y="160.23000000000002" width="60" height="30" as="geometry" />
        </mxCell>
        <mxCell id="CmtSUUQ3qmLQpckclxJ5-13" value="Lambda&lt;div&gt;Whats App Input&lt;/div&gt;" style="text;html=1;align=center;verticalAlign=middle;whiteSpace=wrap;rounded=0;" vertex="1" parent="1">
          <mxGeometry x="639" y="163.8" width="60" height="30" as="geometry" />
        </mxCell>
        <mxCell id="CmtSUUQ3qmLQpckclxJ5-14" style="edgeStyle=orthogonalEdgeStyle;rounded=0;orthogonalLoop=1;jettySize=auto;html=1;entryX=0;entryY=0.5;entryDx=0;entryDy=0;entryPerimeter=0;" edge="1" parent="1" source="CmtSUUQ3qmLQpckclxJ5-5" target="CmtSUUQ3qmLQpckclxJ5-10">
          <mxGeometry relative="1" as="geometry" />
        </mxCell>
        <mxCell id="CmtSUUQ3qmLQpckclxJ5-19" style="edgeStyle=orthogonalEdgeStyle;rounded=0;orthogonalLoop=1;jettySize=auto;html=1;exitX=1;exitY=0.5;exitDx=0;exitDy=0;exitPerimeter=0;" edge="1" parent="1" source="CmtSUUQ3qmLQpckclxJ5-15">
          <mxGeometry relative="1" as="geometry">
            <mxPoint x="910" y="109" as="targetPoint" />
          </mxGeometry>
        </mxCell>
        <mxCell id="CmtSUUQ3qmLQpckclxJ5-15" value="" style="outlineConnect=0;dashed=0;verticalLabelPosition=bottom;verticalAlign=top;align=center;html=1;shape=mxgraph.aws3.dynamo_db;fillColor=#2E73B8;gradientColor=none;" vertex="1" parent="1">
          <mxGeometry x="790" y="68.5" width="72" height="81" as="geometry" />
        </mxCell>
        <mxCell id="CmtSUUQ3qmLQpckclxJ5-16" value="" style="sketch=0;outlineConnect=0;fontColor=#232F3E;gradientColor=none;fillColor=#C925D1;strokeColor=none;dashed=0;verticalLabelPosition=bottom;verticalAlign=top;align=center;html=1;fontSize=12;fontStyle=0;aspect=fixed;pointerEvents=1;shape=mxgraph.aws4.dynamodb_stream;" vertex="1" parent="1">
          <mxGeometry x="920" y="71.5" width="78" height="78" as="geometry" />
        </mxCell>
        <mxCell id="CmtSUUQ3qmLQpckclxJ5-34" style="edgeStyle=orthogonalEdgeStyle;rounded=0;orthogonalLoop=1;jettySize=auto;html=1;" edge="1" parent="1" source="CmtSUUQ3qmLQpckclxJ5-17" target="CmtSUUQ3qmLQpckclxJ5-23">
          <mxGeometry relative="1" as="geometry" />
        </mxCell>
        <mxCell id="CmtSUUQ3qmLQpckclxJ5-17" value="DynamoDB Stream" style="text;html=1;align=center;verticalAlign=middle;whiteSpace=wrap;rounded=0;" vertex="1" parent="1">
          <mxGeometry x="929" y="160.23000000000002" width="60" height="30" as="geometry" />
        </mxCell>
        <mxCell id="CmtSUUQ3qmLQpckclxJ5-20" value="" style="sketch=0;points=[[0,0,0],[0.25,0,0],[0.5,0,0],[0.75,0,0],[1,0,0],[0,1,0],[0.25,1,0],[0.5,1,0],[0.75,1,0],[1,1,0],[0,0.25,0],[0,0.5,0],[0,0.75,0],[1,0.25,0],[1,0.5,0],[1,0.75,0]];outlineConnect=0;fontColor=#232F3E;fillColor=#ED7100;strokeColor=#ffffff;dashed=0;verticalLabelPosition=bottom;verticalAlign=top;align=center;html=1;fontSize=12;fontStyle=0;aspect=fixed;shape=mxgraph.aws4.resourceIcon;resIcon=mxgraph.aws4.lambda;" vertex="1" parent="1">
          <mxGeometry x="510" y="320" width="78" height="78" as="geometry" />
        </mxCell>
        <mxCell id="CmtSUUQ3qmLQpckclxJ5-21" value="Lambda Processing" style="text;html=1;align=center;verticalAlign=middle;whiteSpace=wrap;rounded=0;" vertex="1" parent="1">
          <mxGeometry x="519" y="408" width="60" height="30" as="geometry" />
        </mxCell>
        <mxCell id="CmtSUUQ3qmLQpckclxJ5-35" style="edgeStyle=orthogonalEdgeStyle;rounded=0;orthogonalLoop=1;jettySize=auto;html=1;entryX=1;entryY=0.5;entryDx=0;entryDy=0;" edge="1" parent="1" source="CmtSUUQ3qmLQpckclxJ5-23" target="CmtSUUQ3qmLQpckclxJ5-29">
          <mxGeometry relative="1" as="geometry" />
        </mxCell>
        <mxCell id="CmtSUUQ3qmLQpckclxJ5-23" value="" style="sketch=0;points=[[0,0,0],[0.25,0,0],[0.5,0,0],[0.75,0,0],[1,0,0],[0,1,0],[0.25,1,0],[0.5,1,0],[0.75,1,0],[1,1,0],[0,0.25,0],[0,0.5,0],[0,0.75,0],[1,0.25,0],[1,0.5,0],[1,0.75,0]];outlineConnect=0;fontColor=#232F3E;fillColor=#ED7100;strokeColor=#ffffff;dashed=0;verticalLabelPosition=bottom;verticalAlign=top;align=center;html=1;fontSize=12;fontStyle=0;aspect=fixed;shape=mxgraph.aws4.resourceIcon;resIcon=mxgraph.aws4.lambda;" vertex="1" parent="1">
          <mxGeometry x="920" y="320" width="78" height="78" as="geometry" />
        </mxCell>
        <mxCell id="CmtSUUQ3qmLQpckclxJ5-24" value="Lambda Trigger Message" style="text;html=1;align=center;verticalAlign=middle;whiteSpace=wrap;rounded=0;" vertex="1" parent="1">
          <mxGeometry x="929" y="408" width="60" height="30" as="geometry" />
        </mxCell>
        <mxCell id="CmtSUUQ3qmLQpckclxJ5-25" value="" style="sketch=0;points=[[0,0,0],[0.25,0,0],[0.5,0,0],[0.75,0,0],[1,0,0],[0,1,0],[0.25,1,0],[0.5,1,0],[0.75,1,0],[1,1,0],[0,0.25,0],[0,0.5,0],[0,0.75,0],[1,0.25,0],[1,0.5,0],[1,0.75,0]];outlineConnect=0;fontColor=#232F3E;fillColor=#E7157B;strokeColor=#ffffff;dashed=0;verticalLabelPosition=bottom;verticalAlign=top;align=center;html=1;fontSize=12;fontStyle=0;aspect=fixed;shape=mxgraph.aws4.resourceIcon;resIcon=mxgraph.aws4.step_functions;" vertex="1" parent="1">
          <mxGeometry x="670" y="320" width="78" height="78" as="geometry" />
        </mxCell>
        <mxCell id="CmtSUUQ3qmLQpckclxJ5-26" value="" style="sketch=0;points=[[0,0,0],[0.25,0,0],[0.5,0,0],[0.75,0,0],[1,0,0],[0,1,0],[0.25,1,0],[0.5,1,0],[0.75,1,0],[1,1,0],[0,0.25,0],[0,0.5,0],[0,0.75,0],[1,0.25,0],[1,0.5,0],[1,0.75,0]];outlineConnect=0;fontColor=#232F3E;fillColor=#DD344C;strokeColor=#ffffff;dashed=0;verticalLabelPosition=bottom;verticalAlign=top;align=center;html=1;fontSize=12;fontStyle=0;aspect=fixed;shape=mxgraph.aws4.resourceIcon;resIcon=mxgraph.aws4.secrets_manager;" vertex="1" parent="1">
          <mxGeometry x="386" y="511" width="78" height="78" as="geometry" />
        </mxCell>
        <mxCell id="CmtSUUQ3qmLQpckclxJ5-27" value="" style="sketch=0;points=[[0,0,0],[0.25,0,0],[0.5,0,0],[0.75,0,0],[1,0,0],[0,1,0],[0.25,1,0],[0.5,1,0],[0.75,1,0],[1,1,0],[0,0.25,0],[0,0.5,0],[0,0.75,0],[1,0.25,0],[1,0.5,0],[1,0.75,0]];outlineConnect=0;fontColor=#232F3E;fillColor=#7AA116;strokeColor=#ffffff;dashed=0;verticalLabelPosition=bottom;verticalAlign=top;align=center;html=1;fontSize=12;fontStyle=0;aspect=fixed;shape=mxgraph.aws4.resourceIcon;resIcon=mxgraph.aws4.glacier;" vertex="1" parent="1">
          <mxGeometry x="510" y="511" width="78" height="78" as="geometry" />
        </mxCell>
        <mxCell id="CmtSUUQ3qmLQpckclxJ5-28" value="" style="sketch=0;points=[[0,0,0],[0.25,0,0],[0.5,0,0],[0.75,0,0],[1,0,0],[0,1,0],[0.25,1,0],[0.5,1,0],[0.75,1,0],[1,1,0],[0,0.25,0],[0,0.5,0],[0,0.75,0],[1,0.25,0],[1,0.5,0],[1,0.75,0]];outlineConnect=0;fontColor=#232F3E;fillColor=#01A88D;strokeColor=#ffffff;dashed=0;verticalLabelPosition=bottom;verticalAlign=top;align=center;html=1;fontSize=12;fontStyle=0;aspect=fixed;shape=mxgraph.aws4.resourceIcon;resIcon=mxgraph.aws4.bedrock;" vertex="1" parent="1">
          <mxGeometry x="790" y="520" width="78" height="78" as="geometry" />
        </mxCell>
        <mxCell id="CmtSUUQ3qmLQpckclxJ5-30" style="edgeStyle=orthogonalEdgeStyle;rounded=0;orthogonalLoop=1;jettySize=auto;html=1;exitX=0.5;exitY=1;exitDx=0;exitDy=0;" edge="1" parent="1" source="CmtSUUQ3qmLQpckclxJ5-29" target="CmtSUUQ3qmLQpckclxJ5-28">
          <mxGeometry relative="1" as="geometry" />
        </mxCell>
        <mxCell id="CmtSUUQ3qmLQpckclxJ5-33" style="edgeStyle=orthogonalEdgeStyle;rounded=0;orthogonalLoop=1;jettySize=auto;html=1;entryX=1;entryY=0.5;entryDx=0;entryDy=0;" edge="1" parent="1" source="CmtSUUQ3qmLQpckclxJ5-29" target="CmtSUUQ3qmLQpckclxJ5-7">
          <mxGeometry relative="1" as="geometry" />
        </mxCell>
        <mxCell id="CmtSUUQ3qmLQpckclxJ5-29" value="&lt;h1 style=&quot;margin-top: 0px;&quot;&gt;Amazon Resource&lt;/h1&gt;&lt;div&gt;Amazon Orchestrator&amp;nbsp;&lt;/div&gt;" style="text;html=1;whiteSpace=wrap;overflow=hidden;rounded=0;" vertex="1" parent="1">
          <mxGeometry x="460" y="246.2" width="331" height="226" as="geometry" />
        </mxCell>
        <mxCell id="CmtSUUQ3qmLQpckclxJ5-36" value="Amazon Bedrock" style="text;html=1;align=center;verticalAlign=middle;whiteSpace=wrap;rounded=0;" vertex="1" parent="1">
          <mxGeometry x="802" y="610" width="60" height="30" as="geometry" />
        </mxCell>
        <mxCell id="CmtSUUQ3qmLQpckclxJ5-37" value="StepFunction" style="text;html=1;align=center;verticalAlign=middle;whiteSpace=wrap;rounded=0;" vertex="1" parent="1">
          <mxGeometry x="679" y="408" width="60" height="30" as="geometry" />
        </mxCell>
        <mxCell id="CmtSUUQ3qmLQpckclxJ5-38" value="S3 Glaciar" style="text;html=1;align=center;verticalAlign=middle;whiteSpace=wrap;rounded=0;" vertex="1" parent="1">
          <mxGeometry x="519" y="598" width="60" height="30" as="geometry" />
        </mxCell>
        <mxCell id="CmtSUUQ3qmLQpckclxJ5-39" value="Security Manager Tokens" style="text;html=1;align=center;verticalAlign=middle;whiteSpace=wrap;rounded=0;" vertex="1" parent="1">
          <mxGeometry x="395" y="598" width="60" height="30" as="geometry" />
        </mxCell>
      </root>
    </mxGraphModel>
  </diagram>
</mxfile>
